<?xml version="1.0" encoding="utf-8"?>
<!-- Generator: Adobe Illustrator 13.0.0, SVG Export Plug-In . SVG Version: 6.00 Build 14948)  -->
<!DOCTYPE svg PUBLIC "-//W3C//DTD SVG 1.1//EN" "http://www.w3.org/Graphics/SVG/1.1/DTD/svg11.dtd">
<svg version="1.1" id="图层_1" xmlns="http://www.w3.org/2000/svg" xmlns:xlink="http://www.w3.org/1999/xlink" x="0px" y="0px"
	 width="913.28px" height="776.194px" viewBox="0 0 913.28 776.194" enable-background="new 0 0 913.28 776.194"
	 xml:space="preserve">
<rect x="515.026" y="645.307" fill="#CCCCCC" width="19.676" height="3.394"/>
<rect x="601.601" y="624.303" fill="#CCCCCC" width="4.87" height="15.74"/>
<g>
	<g>
		<path fill="#006633" d="M55.383,700.364c0,9.081-3.602,18.788-10.831,29.144c-15.661,18.126-28.907,24.919-39.723,20.388
			C0,743.441-1.204,735.98,1.203,727.564c0.598,0,1.495-0.323,2.706-0.967c4.814,0,13.844-5.495,27.09-16.522
			C44.843,699.074,52.976,695.842,55.383,700.364z M141.175,584.784c3.604,0,6.615,1.62,9.015,4.854
			c3.02,5.19,9.635,7.448,19.869,6.808c12.657,0.641,18.359,4.849,17.156,12.625c0,6.469-4.216,9.388-12.633,8.742h-1.809
			c-6.025-1.29-10.84-1.621-14.434-0.979c-4.232,0.657-7.834,2.281-10.847,4.857c-1.219,1.951-2.423,2.918-3.618,2.918
			c-1.801,0.653-4.507-0.967-8.125-4.86c-2.408-2.589-4.209-3.883-5.428-3.883c-9.022,0-18.359,0-27.986,0
			c-7.827,0.657-13.545,3.571-17.148,8.743c0,1.943,2.699,4.861,8.134,8.739c6.615,4.538,9.604,8.105,9.014,10.682
			c0,1.31-2.399,3.571-7.213,6.809c-6.033,3.252-8.739,5.824-8.125,7.767c-1.228,5.188,6.324,7.449,22.566,6.789
			c16.849,0.66,25.588-2.254,26.186-8.731c1.203-4.527-3.909-7.775-15.346-9.718c-8.44-0.634-12.648-2.584-12.648-5.833
			c0-4.516,7.52-6.796,22.567-6.796c2.399,0,4.83-1.291,7.229-3.878c2.415-1.951,4.523-2.914,6.324-2.914
			c1.817,0,3.618,0.656,5.419,1.946c2.399,2.588,6.623,3.555,12.64,2.915c0.598,0,4.814-0.327,12.648-0.98h12.633
			c6.631,0.653,9.935,3.571,9.935,8.739c-0.614,7.13-3.013,10.371-7.229,9.711c-6.615,0-13.247,0-19.862,0
			c-7.826,1.95-13.544,5.521-17.147,10.693c0.574,1.942,6.615,3.244,18.067,3.878c2.375,0,5.404-0.307,9.015-0.968
			c7.221-0.633,14.741-0.968,22.567-0.968c7.818,0.649,12.05,3.891,12.648,9.718c0,7.123-3.917,10.671-11.736,10.671
			c-6.033,0-12.349,0-18.972,0c-9.015,0.664-12.043,5.199-9.015,13.607c3.603,6.47,14.135,13.923,31.59,22.331
			c3.012,1.951,6.024,2.919,9.045,2.919c1.81,0,2.997,0.652,3.595,1.95c3.021,5.821,1.204,11.653-5.412,17.471
			c-3.012,2.606-5.726,4.224-8.125,4.86h-0.896c-13.868-1.29-35.224-18.453-64.107-51.479c-6.025-7.759-12.349-11.66-18.964-11.66
			c-1.809,0-4.216-0.307-7.229-0.972c-9.038-1.286-17.461-0.956-25.272,0.972c-7.236,1.317-14.772,4.868-22.583,10.689
			c-3.618,2.596-6.324,3.886-8.134,3.886c-1.793,0-3.318-1.947-4.507-5.832c-1.211-4.516-3.319-6.793-6.332-6.793
			c-8.424-0.633-15.951,0-22.566,1.951c-2.408,0.638-4.516,0.967-6.309,0.967c-8.448,0-12.35-3.89-11.752-11.665
			c-0.598-7.114,2.108-10.352,8.118-9.701c13.246,0,25.595,0,37.032,0c9.612,0,15.354-3.241,17.163-9.719
			c-1.227-4.527-6.017-6.808-14.457-6.808c-7.827-0.63-14.458-0.307-19.869,0.983c-1.794,0-3.312,0-4.516,0
			c-7.228-1.29-10.241-4.857-9.014-10.694c0.582-6.458,3.603-9.706,9.014-9.706c4.2,0.645,12.648,0.967,25.296,0.967
			c6.616-1.935,10.226-4.853,10.832-8.742c0-1.29-3.02-2.58-9.03-3.882c-2.422,0-5.419,0-9.038,0
			c-6.624,0.656-10.533,0.334-11.736-0.968c-2.407-7.774-1.196-13.604,3.603-17.485c0.613-0.634,4.83-0.634,12.648,0h1.81
			c3.61,0,7.528-3.241,11.744-9.71l1.809-1.947c3.005-2.58,6.915-2.58,11.728,0c4.814,6.485,15.661,10.045,32.501,10.686
			c9.046,0.649,16.259-2.58,21.694-9.718C137.258,586.404,139.366,584.784,141.175,584.784z M14.748,568.266
			c-1.809-3.873,5.097-5.482,20.767-4.846c19.271,0.642,27.994,3.561,26.193,8.744c-0.606,2.591-3.925,5.498-9.926,8.742
			c-5.428,2.588-9.046,5.184-10.855,7.764c-2.399,3.248-4.798,7.775-7.205,13.6c-1.228,2.588-2.124,4.539-2.722,5.837
			c-4.216,6.465-9.627,9.053-16.251,7.759c-5.411-1.954-7.221-6.465-5.411-13.596l0.896-0.976c1.793-2.579,3.618-8.408,5.412-17.478
			c0.605-5.188,0.307-9.392-0.897-12.632C14.748,569.887,14.748,568.927,14.748,568.266z M58.096,739.222
			c30.692,0.657,66.813,4.542,108.359,11.656c9.62,1.287,14.45,6.14,14.45,14.557c-2.422,7.774-8.133,11.016-17.155,9.726
			c-1.817-0.657-4.522-1.31-8.141-1.951c-34.311-7.774-67.724-11.987-100.226-12.615c-9.03-0.661-13.537-4.221-13.537-10.698
			C43.647,742.78,49.059,739.222,58.096,739.222z M109.562,547.873c2.399,0,6.324,1.62,11.736,4.854
			c9.62,5.194,18.666,8.104,27.083,8.746c3.012,0,9.336,0.326,18.964,0.964c25.297,0.656,38.228,1.624,38.833,2.918
			c2.399,2.604,3.618,6.158,3.618,10.686c0,2.588,0,4.865,0,6.8c0,0.653,0.291,1.625,0.897,2.915
			c1.203,5.194,2.406,11.33,3.609,18.453c1.196,7.775-1.494,12.313-8.125,13.604c-4.83,2.588-8.739-0.979-11.735-10.689
			c-6.631-18.127-21.67-26.861-45.15-26.217c-10.25-0.645-21.379-0.645-33.407,0c-8.424,0.649-15.337,0.963-20.765,0.963
			c-17.486,0-27.09-4.207-28.907-12.62c1.195-4.526,9.636-7.775,25.296-9.714c2.399-0.646,5.703-2.91,9.935-6.808
			C105.039,549.493,107.753,547.873,109.562,547.873z M92.408,692.589c23.479,3.253,38.511,7.146,45.142,11.661
			c8.432,4.538,11.437,11.024,9.046,19.437c-2.415,6.466-7.843,8.738-16.275,6.788c-3.013-1.289-7.52-2.91-13.545-4.856
			c-10.225-5.181-20.765-8.739-31.589-10.679c-6.638-1.95-9.336-6.792-8.125-14.575C80.058,695.192,85.186,692.589,92.408,692.589z"
			/>
		<path fill="#006633" d="M306.42,668.308c0.59,0.66,1.188,1.628,1.793,2.914c3.005,4.547,5.121,6.812,6.317,6.812
			c1.196,0,2.713,0.33,4.53,0.963c4.193,0,7.504,0.657,9.926,1.955c5.419,4.531,6.324,9.703,2.714,15.535
			c-4.838,3.249-10.556,4.846-17.171,4.846c-4.216,2.607-5.113,5.518-2.698,8.743c3.004,1.95,6.914,3.885,11.735,5.828
			c4.2,1.946,7.22,3.886,9.038,5.833c2.989,9.076,0.888,14.566-6.324,16.518c-10.847-1.951-16.566,2.266-17.171,12.624l0.912,7.765
			v7.775c-1.81,8.412-7.536,11.319-17.156,8.742c-4.829-0.657-6.93-8.742-6.324-24.282c-2.415-3.894-6.025-4.526-10.831-1.946
			c-16.857,12.943-27.397,15.535-31.613,7.771c-4.813-7.771-6.009-12.939-3.603-15.546c3.603-5.817,8.125-7.434,13.545-4.854
			c5.42,0,15.944-8.404,31.589-25.244c1.203-5.185,0-8.409-3.594-9.727c-1.818,0-5.734,0.338-11.736,0.979
			c-10.25,0.646-16.574,0.646-18.973,0c-6.623-3.236-9.337-8.102-8.117-14.563c2.996-3.89,6.001-6.154,9.022-6.796
			c3.004,0,7.818-0.33,14.434-0.979c8.433,0,13.552-0.319,15.37-0.977c4.192-1.285,7.819-4.526,10.831-9.705
			C297.076,666.054,301.591,665.73,306.42,668.308z M250.423,588.67c23.479-0.646,37.324,0.968,41.532,4.857
			c5.419,5.188,5.419,9.077,0,11.656c-13.254,4.547-21.072,10.355-23.472,17.479c-6.025,14.901-12.632,22.351-19.861,22.351
			c-7.834-1.951-9.643-8.747-5.411-20.404c6.614-9.71,6.905-15.865,0.888-18.453C241.7,597.086,243.785,591.258,250.423,588.67z
			 M431.919,553.71c7.236-0.645,11.744,1.624,13.545,6.793c1.809,8.424-0.614,13.922-7.229,16.506c-1.203,0-6.922,0-17.163,0
			c-22.866,0-41.839,0.334-56.87,0.983c-3.618,0-7.536,1.624-11.744,4.849c2.996,3.249,7.527,5.184,13.561,5.829
			c2.989,0,7.818,0,14.434,0c22.276-0.646,40.619-0.311,55.084,0.968c9.03,3.248,11.437,9.077,7.229,17.485
			c-1.227,1.947-0.315,7.448,2.698,16.519c0.59,1.298,0.905,2.266,0.905,2.91c2.407,9.076-0.598,13.934-9.03,14.56
			c-6.025,0.661-11.138-3.878-15.354-13.588c0.598-9.711-3.925-15.205-13.521-16.507c-0.622,0-2.14-0.322-4.539-0.979
			c-10.832-1.295-18.965-1.609-24.385-0.968c-13.229,1.946-22.566,9.388-27.979,22.334c0,0.653,0.291,2.911,0.897,6.797
			c0.597,7.779,0.597,12.637,0,14.57c-1.81,9.719-5.727,13.938-11.736,12.622c-6.638-2.568-9.935-7.426-9.935-14.556
			c0-3.237,0.307-7.776,0.913-13.604c0.582-5.176,0.905-8.747,0.905-10.682c-1.818-11.653-11.46-19.095-28.907-22.343
			c-2.407-0.63-3.925-2.254-4.507-4.854c0-2.58,1.203-4.527,3.595-5.828c1.817-0.642,4.523-1.287,8.141-1.943
			c8.432-0.634,15.047-3.225,19.86-7.768c-0.605-2.584-3.618-4.2-9.029-4.86c-4.216,0.66-9.926,0.66-17.155,0
			c-14.45-0.634-30.118-0.634-46.951,0c-6.639,0.66-10.847-1.947-12.648-7.771c-2.415-7.123,0-11.973,7.229-14.56
			c11.429,0,27.389,0,47.863,0C373.532,557.265,417.478,556.299,431.919,553.71z M311.833,642.09
			c4.806,1.303,7.81,3.564,9.021,6.797c0,9.081-4.83,13.938-14.434,14.571c-8.432,0-17.478,0.661-27.105,1.936
			c-1.801,0-3.311,0-4.507,0c-4.822,0-8.731-1.936-11.744-5.813c-1.801-4.526-0.606-9.388,3.603-14.567
			C273.903,643.062,288.942,642.09,311.833,642.09z M310.928,615.865c8.432,1.947,11.413,6.164,9.022,12.621
			c-1.204,1.951-2.706,3.571-4.515,4.861c-2.408,0.66-4.507,1.628-6.324,2.918c-7.213-0.638-15.331-1.29-24.369-1.95
			c-4.821-0.63-7.535-3.544-8.117-8.739c0-3.886,2.391-6.796,7.221-8.743h1.786C298.877,614.898,307.31,614.571,310.928,615.865z
			 M410.25,670.254c15.645,0,25.288,0.66,28.906,1.954c7.213,1.932,8.417,6.155,3.611,12.621c-2.407,5.825-2.407,15.874,0,30.11
			c0.582,3.245,1.188,10.041,1.801,20.4c0.605,10.354,0.896,16.825,0.896,19.421c1.196,8.408-0.614,13.254-5.419,14.575
			c-2.399,0.625-7.229,0.963-14.434,0.963c-10.847,0-21.686,0-32.518,0c-5.419,0-13.262,0-23.479,0
			c-17.47,0.634-26.799,0.634-27.979,0c-2.415-0.656-3.028-9.077-1.817-25.257c0-2.572,0-4.522,0-5.82
			c1.817-24.608,2.399-39.176,1.817-43.715c0-5.828-1.817-9.71-5.435-11.649c-1.211-5.824,0.605-9.388,5.435-10.686
			c0.583,0,1.487,0,2.69,0c12.648-1.95,22.583-1.29,29.812,1.943c4.208,1.938,6.608,3.563,7.221,4.857
			c0.59,1.31-0.613,2.6-3.61,3.885c-1.219,0.653-3.327,1.625-6.316,2.923c-6.033,2.592-9.038,4.208-9.038,4.842
			c-0.605,3.252,2.101,5.514,8.134,6.8c1.195,0,2.108,0,2.689,0c20.476,3.248,35.53,2.281,45.166-2.915
			c1.801-1.938,2.392-3.547,1.801-4.853c-1.211-1.282-3.319-2.258-6.309-2.907l-10.854-1.95c-7.213-0.63-11.138-0.968-11.728-0.968
			c-4.224-0.633-6.646-3.236-7.229-7.775C385.267,673.172,393.999,670.914,410.25,670.254z M407.543,713.96
			c-4.232-0.637-13.545-0.637-28.003,0h-1.793c-10.249,0.653-15.959,3.249-17.163,7.776c-0.598,3.244,4.506,5.828,15.354,7.771
			c3.602,0.645,5.71,2.265,6.324,4.853c0,3.252-3.028,5.519-9.046,6.797c-9.013,1.946-14.134,4.537-15.337,7.774
			c1.203,3.878,5.71,5.829,13.552,5.829l35.208-1.951c10.226-0.645,15.944-2.914,17.163-6.792c-0.598-1.29-4.232-2.914-10.847-4.86
			c-1.219,0-4.208-0.315-9.029-0.964c-6.615,0-10.541-0.314-11.736-0.972c-3.603-1.294-5.121-2.919-4.515-4.861
			c0.598-2.588,2.698-4.208,6.324-4.853c18.068-2.58,27.388-5.184,27.986-7.771C420.774,717.85,415.967,715.274,407.543,713.96z
			 M371.431,642.09c1.204,0,3.603,0,7.205,0c13.844,0.649,25.596,0.649,35.239,0c6.01,1.939,9.604,4.547,10.832,7.765
			c1.188,7.146-2.722,11.35-11.752,12.636l-18.956-0.975c-12.641-0.638-19.272-0.968-19.861-0.968
			c-6.639-1.299-9.934-4.869-9.934-10.693C363.589,645.98,366.02,643.393,371.431,642.09z M400.323,617.813
			c6.001,0.646,9.927,2.27,11.744,4.85c2.391,4.539,0.291,8.742-6.324,12.637h-9.935c-8.448,0-15.062,0.329-19.869,0.967
			c-9.627-1.95-12.349-6.462-8.133-13.604C368.411,618.146,379.234,616.522,400.323,617.813z"/>
		<path fill="#006633" d="M513.197,612.948c4.193-5.168,8.118-5.168,11.736,0c4.806,5.832,12.939,9.398,24.384,10.693
			c7.205,1.298,11.13,5.506,11.736,12.624c0.589,5.188-2.714,8.747-9.951,10.679c-2.391,0.656-4.216,0.971-5.411,0.971
			c-12.043,3.89-16.856,8.428-14.442,13.601c5.412,7.13,10.84,12.954,16.26,17.48c4.207,3.25,5.993,6.801,5.411,10.683
			c-0.614,4.53-3.312,6.808-8.133,6.808c-9.023-1.294-13.852,4.217-14.435,16.503c0,3.253,0.291,9.399,0.896,18.457
			c0.599,14.248,0.599,24.277,0,30.114c0.599,9.706-3.916,14.229-13.545,13.6c-7.841,0-11.444-4.538-10.831-13.6
			c0.591-14.245,0.905-21.682,0.905-22.339c-1.81-9.069-5.113-11.323-9.942-6.797c-0.599,0.646-1.786,1.936-3.611,3.878
			c-6.018,5.837-11.146,9.715-15.346,11.662c-6.018,1.931-10.832,0-14.45-5.825c-4.216-10.367-2.414-16.521,5.42-18.453
			c6.018-1.95,16.857-15.539,32.518-40.808c7.229-10.997,6.914-19.739-0.904-26.217c-4.225-5.184-11.154-7.114-20.782-5.824
			c-7.221,0.641-10.831-3.237-10.831-11.658c-1.219-10.359,3.901-14.897,15.354-13.604
			C497.237,627.523,506.566,623.319,513.197,612.948z M551.102,555.642c7.237-1.932,11.437,1.317,12.648,9.714
			c1.203,9.069-1.212,14.261-7.229,15.551c-16.849,4.53-27.389,11.012-31.589,19.421c-2.415,5.828-6.646,5.828-12.641,0
			c-4.217-5.172-13.262-7.119-27.09-5.832c-7.221,0.66-11.744-3.237-13.545-11.654c-3.611-11.656-0.315-17.792,9.927-18.448
			c1.195,0,2.399,0.656,3.618,1.934c1.195,1.311,3.004,1.939,5.419,1.939c15.638-1.285,33.406-4.846,53.284-10.674
			C546.886,556.959,549.317,556.299,551.102,555.642z M651.344,629.47c1.802-3.894,3.296-5.828,4.523-5.828
			c1.188,0,2.107,1.935,2.69,5.828c1.203,4.538,2.406,13.923,3.634,28.163c1.203,11.013,2.092,18.449,2.689,22.34
			c1.817,11.649,4.208,16.844,7.237,15.534c6.017,0,9.934,3.567,11.728,10.69c-0.605,5.195-3.611,10.045-9.022,14.571
			c-6.017,3.882-9.029,9.081-9.029,15.534c0,2.597,0.291,6.478,0.904,11.662c0.59,7.759,0.59,13.257,0,16.502
			c-0.613,8.413-5.42,12.291-14.465,11.661c-9.008,0-12.933-4.216-11.736-12.633c0.59-14.229-1.81-24.596-7.198-31.07
			c-8.455-5.827-20.191-7.444-35.222-4.86l-18.061,1.943c-11.452,1.305-17.479,1.938-18.067,1.938
			c-10.234,0-15.645-4.205-16.259-12.629c0.614-8.408,4.515-13.262,11.751-14.567c15.646,0,29.175-0.311,40.636-0.967
			c19.239-1.29,32.194-7.776,38.824-19.426c3.006-5.179,5.412-14.24,7.214-27.195C646.523,643.715,648.929,634.653,651.344,629.47z
			 M584.533,629.47c12.64,5.184,24.375,13.592,35.215,25.249c5.419,4.53,6.315,11.335,2.706,20.396
			c-4.838,7.131-11.146,6.792-18.965-0.976c-6.033-5.832-16.259-13.592-30.692-23.302c-7.236-6.478-9.046-12.291-5.419-17.49
			C572.174,628.18,577.893,626.891,584.533,629.47z M593.554,560.503c14.457,6.478,26.193,14.252,35.215,23.313
			c6.01,7.134,6.616,13.927,1.81,20.393c-4.829,6.485-10.54,7.452-17.171,2.914c-9.03-9.058-19.563-17.159-31.597-24.282
			c-6.01-4.519-7.521-10.036-4.516-16.515C580.906,559.212,586.333,557.265,593.554,560.503z M661.279,552.728
			c9.022-1.295,12.939,4.231,11.744,16.521c-0.613,12.955-3.934,25.579-9.942,37.874c-3.61,7.142-6.922,10.367-9.935,9.71
			c-3.013,0-5.121-4.196-6.324-12.624c-0.599-9.054-0.599-20.393,0-33.992C648.025,558.552,652.855,552.728,661.279,552.728z"/>
		<path fill="#006633" d="M747.055,633.348c3.014-0.63,6.018,2.592,9.038,9.714c2.392,5.199,4.2,8.743,5.42,10.69
			c0.581,0.645,2.093,0.645,4.507,0c6.017-0.649,9.935,0.645,11.736,3.881c1.203,5.192,0.291,9.711-2.69,13.589
			c-7.236,6.489-11.153,13.289-11.744,20.4c-1.809,12.955-1.519,22.685,0.896,29.146c2.384,31.707-1.51,48.225-11.743,49.53
			c-9.644,4.531-21.379,3.237-35.223-3.881c-7.818-3.882-10.831-9.078-9.015-15.54c0.59-5.184,4.2-7.437,10.823-6.811
			c1.203,0,3.021,0.338,5.42,0.975c10.233,4.546,15.959,0.652,17.155-11.649c0-15.543-0.605-24.918-1.802-28.167
			c-3.618-9.062-9.337-11.976-17.162-8.739c-13.845,3.249-21.671,0-23.465-9.706c-0.613-7.784,2.997-11.983,10.839-12.641
			c11.422-2.584,19.256-5.832,23.464-9.714c4.217-3.878,7.819-11.654,10.839-23.314
			C745.553,635.939,746.458,633.348,747.055,633.348z M751.579,552.728c4.813,0.659,6.906,4.231,6.332,10.692
			c0,2.593,0,4.539,0,5.829c1.188,10.367,5.695,16.507,13.521,18.453c5.419,1.294,8.439,4.849,9.046,10.678
			c0,7.775-2.133,12.314-6.333,13.604c-7.221,0-13.852,3.241-19.869,9.706c-1.801,1.951-3.02,2.918-3.603,2.918
			c-1.809,0-3.916-1.289-6.324-3.889c-4.821-4.528-10.249-7.434-16.267-8.735c-0.598,0-2.1,0-4.498,0
			c-9.038,1.302-15.669,0.334-19.878-2.914c-3.021-5.181-3.296-10.69-0.903-16.52c2.422-4.526,6.93-6.461,13.561-5.82
			c1.179,0,2.092,0,2.697,0c11.437,0.646,18.973-4.526,22.575-15.546C743.453,558.245,746.757,552.094,751.579,552.728z
			 M803.941,676.082c5.428-0.629,9.321,1.31,11.752,5.825c1.801,1.95,3.603,4.543,5.412,7.771
			c3.609,7.775,11.121,12.971,22.574,15.547c3.603,1.306,9.321-0.648,17.147-5.829c1.817-0.641,4.208-2.261,7.236-4.857
			c4.185-2.579,6.891-3.236,8.118-1.95c2.398,6.485,0.904,14.576-4.522,24.29c-3.596,4.53-4.508,9.068-2.706,13.596
			c7.229,10.367,17.155,17.159,29.795,20.403c1.817,0,3.634,0.335,5.451,0.965c3.595,0,5.994,0,7.197,0
			c3.013,5.828,2.407,12.294-1.785,19.424c-7.229,3.236-14.167,3.894-20.782,1.942c-3.012-1.297-8.424-4.533-16.258-9.714
			c-10.249-7.122-17.156-11.02-20.759-11.652c-7.841,0-14.165,1.29-18.964,3.881c-25.288,18.779-42.444,23.637-51.474,14.575
			c-4.232-5.194-4.83-11.012-1.817-17.489c1.817-1.286,4.523-1.932,8.125-1.932c3.014,0,5.428,0,7.229,0
			c13.23-3.894,21.686-10.685,25.288-20.403c-0.613-6.466-4.507-14.232-11.736-23.31c-4.828-5.172-8.125-9.385-9.942-12.626
			C795.494,684.196,797.311,678.033,803.941,676.082z M842.766,620.72c2.408-0.638,5.114,1.942,8.142,7.767
			c2.399,5.199,4.798,8.437,7.222,9.715c1.179,1.31,6.315,2.284,15.346,2.91c16.849,1.31,26.775,3.571,29.787,6.804
			c2.399,2.6,1.496,7.461-2.697,14.575c-1.228,1.936-2.108,3.563-2.714,4.854c-4.807,13.607-9.935,20.074-15.346,19.437
			c-2.399-0.649-3.61-3.237-3.61-7.784c-0.622-5.824-1.81-9.705-3.618-11.652c-1.212-3.886-10.533-5.172-27.995-3.886
			c-9.022,0.661-19.555,1.629-31.589,2.923c-16.274,2.587-26.193,1.297-29.804-3.891c-3.626-7.114-1.809-13.266,5.42-18.461
			c1.801-0.637,4.185-0.968,7.212-0.968c7.835,0,17.463-1.289,28.908-3.882c1.785,0,4.191-2.914,7.221-8.742
			C837.647,623.968,840.352,620.72,842.766,620.72z M840.069,551.76c8.417-2.576,13.238,2.914,14.434,16.506
			c-1.195,6.489,4.224,10.69,16.267,12.641c4.806,1.298,10.532,1.62,17.147,0.963c4.193,0,7.527,0,9.935,0
			c6.018,0.657,9.038,4.221,9.038,10.682c-0.613,7.776-3.627,11.996-9.038,12.633c-22.897-2.579-37.024-1.604-42.437,2.923
			c-1.211,0.637-2.722,1.932-4.507,3.878c-2.422,3.241-4.523,5.175-6.34,5.828c-1.211,0-2.705-1.29-4.499-3.901
			c-4.837-5.168-9.329-7.756-13.545-7.756c-2.406,0-5.734,0-9.927,0c-7.834,0.653-14.78,0.653-20.773,0
			c-6.018-0.637-9.636-4.2-10.839-10.693c-0.613-5.824,2.108-10.025,8.125-12.621h0.905c7.802,1.314,13.222,1.314,16.251,0
			c10.839-1.935,17.752-7.118,20.766-15.543c0.589-1.942,1.501-4.515,2.722-7.763C836.152,553.71,838.259,551.13,840.069,551.76z"/>
	</g>
	<path fill="#006633" d="M496.498,0c-3.06,1.282-6.08,2.658-9.068,4.113c-5.869,2.863-11.524,6.002-16.99,9.534
		c-34.917,17.722-58.562,52.701-67.363,90.748c-6.261,31.778-2.195,70.628,26.791,87.484c9.203,6.198,18.484,8.708,27.705,8.708
		c25.823,0,51.08-19.633,72.436-32.495c2.532-0.692,5.104-1.022,7.638-1.022c2.336,0,4.648,0.275,6.898,0.818
		c14.048,3.264,25.768,16.063,26.444,30.582c1.133,16.196-2.415,30.181-9.273,41.98c-3.391,5.86-7.654,11.192-12.522,15.983
		c-5.789,4.869-11.987,9.069-18.445,12.727c-6.474,3.666-13.262,6.732-20.271,9.195c-7.244,2.941-14.725,5.199-22.236,6.733
		c-9.062,2.084-18.162,3.075-27.177,3.075c-73.144,0-141.002-65.145-141.065-139.524c-0.598-6.001-0.865-12.066-0.928-18.13
		c-0.071-12.121,0.857-24.25,2.863-36.175c1.329-7.999,3.06-15.92,5.325-23.653c2.005-7.464,4.593-14.724,7.606-21.717
		c3.052-7,6.521-13.733,10.454-20.191c0.559-0.889,1.141-1.762,1.715-2.643c-66.403,37.032-113.166,106.055-118.255,187.6
		C220.849,341.046,317.668,450.728,445,458.656c4.877,0.298,9.73,0.456,14.575,0.456c108.996,0,202.301-76.37,225.387-180.993
		c-38.181,76.337-110.624,109.697-185.712,109.697c-90.653,0-185.168-48.595-227.959-128.851
		c45.056,50.68,112.45,82.261,176.761,82.261c49.319,0,96.82-18.555,131.053-61.337c2.879-3.398,6.732-7.126,8.73-11.06
		c21.867-39.707,41.776-109.397-7.991-139.248c-6.073-3.021-12.602-4.185-19.413-4.185c-12.051,0-24.974,3.658-37.835,7.315
		c-12.782,3.643-25.517,7.308-37.213,7.308c-13.537,0-25.674-4.893-34.932-20.364c-9.926-29.914,0-59.772,29.851-79.618
		c19.908-9.982,40.926-14.418,61.951-14.418c11.972,0,23.936,1.439,35.703,4.106C553.478,15.055,525.971,4.774,496.498,0"/>
</g>
</svg>
